<svg width="1298" height="225" viewBox="0 0 1298 225" fill="none" xmlns="http://www.w3.org/2000/svg">
<g clip-path="url(#clip0_446_1516)">
<path d="M62.714 172.626C41.6319 172.626 25.9314 166.753 15.5682 155.006C5.20503 143.08 0.0234375 126.238 0.0234375 104.457C0.0234375 82.6754 5.38294 65.9222 16.0797 54.175C26.7987 42.2497 42.1656 36.2871 62.2025 36.2871C72.3878 36.2871 81.3722 38.1115 89.1557 41.738C96.9392 45.1865 103.233 50.0367 108.081 56.2441C112.907 62.4737 115.864 69.7267 116.887 78.0255H95.3825C94.3373 71.2841 91.3129 65.7665 86.3092 61.428C81.4834 56.9338 73.522 54.6867 62.4694 54.6867C47.7919 54.6867 37.2508 59.0919 30.8684 67.9024C24.4859 76.5348 21.2835 88.727 21.2835 104.457C21.2835 120.187 24.4859 132.446 30.8684 141.278C37.2508 149.911 47.7919 154.227 62.4694 154.227C73.0105 154.227 80.8607 152.403 86.0423 148.776C91.2239 144.971 94.3373 139.365 95.3603 131.934H117.377C116.331 139.543 113.574 146.462 109.082 152.67C104.767 158.721 98.6294 163.549 90.6902 167.176C82.9067 170.802 73.5887 172.626 62.714 172.626Z" fill="#1C4E6D"/>
<path d="M137.59 95.1351H225.677C225.499 81.6524 222.319 71.4626 216.092 64.5432C210.043 57.6239 200.814 54.1754 188.36 54.1754C174.55 54.1754 164.432 58.4026 158.049 66.8793C151.667 75.1781 148.464 87.526 148.464 103.946C148.464 120.365 151.578 133.403 157.782 142.057C164.165 150.534 174.973 154.761 190.162 154.761C200.347 154.761 207.775 153.115 212.445 149.844C217.115 146.574 220.295 142.146 222.03 136.629H244.58C242.845 143.548 239.754 149.755 235.262 155.295C230.769 160.657 224.81 164.884 217.382 167.999C210.132 171.114 201.059 172.671 190.184 172.671C169.458 172.671 153.735 166.709 143.038 154.784C132.497 142.858 127.227 126.105 127.227 104.502C127.227 82.8983 132.497 65.7002 143.038 53.9529C153.757 42.2057 168.857 36.332 188.383 36.332C199.102 36.332 208.842 38.5791 217.671 43.0734C226.477 47.5676 233.572 54.7316 238.909 64.5877C244.268 74.4439 246.937 87.6595 246.937 104.257V111.51H137.345L137.612 95.1796L137.59 95.1351Z" fill="#1C4E6D"/>
<path d="M286.769 170.046H265.531V39.1349H286.769V59.0919C290.905 52.3506 296.02 46.8997 302.047 42.7614C308.274 38.4452 316.636 36.2871 327.177 36.2871C341.521 36.2871 352.818 40.3586 361.113 48.4793C369.408 56.4221 373.544 69.66 373.544 88.1486V170.068H352.039V88.9273C352.039 76.4903 349.437 67.6799 344.256 62.496C339.074 57.312 331.558 54.7089 321.706 54.7089C314.634 54.7089 308.407 55.9994 303.048 58.6024C297.866 61.2055 293.796 65.2548 290.861 70.7947C288.103 76.3346 286.725 83.7656 286.725 93.0878V170.068L286.769 170.046Z" fill="#1C4E6D"/>
<path d="M456.847 57.2901H426.78V151.913H456.313V170.068H438.7C428.159 170.068 419.953 167.999 414.082 163.839C408.389 159.522 405.542 151.58 405.542 139.988V57.2901H382.992V39.1353H405.542V0H426.78V39.1353H456.847V57.2901Z" fill="#1C4E6D"/>
<path d="M470.926 95.1351H559.013C558.835 81.6524 555.632 71.4626 549.428 64.5432C543.379 57.6239 534.128 54.1754 521.696 54.1754C507.886 54.1754 497.768 58.4026 491.385 66.8793C485.003 75.1781 481.8 87.526 481.8 103.946C481.8 120.365 484.914 133.403 491.118 142.057C497.501 150.534 508.309 154.761 523.498 154.761C533.683 154.761 541.111 153.115 545.781 149.844C550.451 146.574 553.631 142.146 555.366 136.629H577.916C576.181 143.548 573.09 149.755 568.598 155.295C564.105 160.657 558.145 164.884 550.718 167.999C543.468 171.114 534.395 172.671 523.52 172.671C502.794 172.671 487.071 166.709 476.374 154.784C465.833 142.858 460.562 126.105 460.562 104.502C460.562 82.8983 465.833 65.7002 476.374 53.9529C487.093 42.2057 502.193 36.332 521.719 36.332C532.438 36.332 542.178 38.5791 551.007 43.0734C559.813 47.5676 566.907 54.7316 572.245 64.5877C577.604 74.4439 580.273 87.6595 580.273 104.257V111.51H470.681L470.948 95.1796L470.926 95.1351Z" fill="#1C4E6D"/>
<path d="M620.097 170.045H598.859V39.1348H620.097V62.2066C623.211 54.7755 627.525 49.0799 633.04 45.0974C638.733 41.1149 645.827 39.1348 654.278 39.1348H665.931V57.2896H651.409C641.224 57.2896 633.44 60.2264 628.081 66.1001C622.721 71.9737 620.053 80.7841 620.053 92.5314V170.045H620.097Z" fill="#1C4E6D"/>
<path d="M805.19 73.6207C804.144 66.8793 801.387 62.0514 796.895 59.1146C792.58 55.9998 786.02 54.4424 777.213 54.4424C767.718 54.4424 760.468 56.1778 755.442 59.6263C750.616 62.9191 748.192 67.2353 748.192 72.5972C748.192 77.9591 750.082 82.2754 753.885 85.0342C757.866 87.793 763.826 90.1291 771.765 92.0425L792.491 97.2264C804.745 100.163 813.818 104.568 819.689 110.442C825.56 116.316 828.496 124.103 828.496 133.781C828.496 145.016 824.092 154.339 815.286 161.77C806.479 169.023 793.092 172.649 775.123 172.649C759.067 172.649 746.702 169.445 738.074 163.06C729.445 156.675 724.352 146.819 722.773 133.514H745.056C746.102 140.589 748.681 145.862 752.84 149.333C756.976 152.625 764.248 154.25 774.612 154.25C786.354 154.25 794.649 152.514 799.474 149.066C804.478 145.439 806.991 140.767 806.991 135.071C806.991 129.709 805.167 125.482 801.543 122.367C797.918 119.075 792.047 116.405 783.93 114.336L763.203 109.152C751.283 106.215 742.299 101.899 736.25 96.203C730.201 90.3294 727.177 82.8983 727.177 73.9099C727.177 62.3406 731.402 53.1742 739.875 46.4329C748.503 39.6916 760.957 36.332 777.191 36.332C792.225 36.332 803.789 39.5358 811.906 45.9212C820.201 52.1508 824.871 61.3839 825.894 73.6652H805.167L805.19 73.6207Z" fill="#1C4E6D"/>
<path d="M905.737 57.2901H875.693V151.913H905.226V170.068H887.613C877.072 170.068 868.866 167.999 862.995 163.839C857.302 159.522 854.433 151.58 854.433 139.988V57.2901H831.883V39.1353H854.433V0H875.671V39.1353H905.715V57.2901H905.737Z" fill="#1C4E6D"/>
<path d="M1032.76 170.047H1018.77C1012.39 170.047 1007.45 167.889 1004 163.572C1000.56 159.256 998.732 152.159 998.554 142.325L1001.4 143.104C998.109 152.092 992.683 159.256 985.078 164.618C977.65 169.98 967.62 172.65 955.011 172.65C945.337 172.65 937.042 171.182 930.148 168.245C923.41 165.308 918.228 160.903 914.603 155.029C911.156 149.155 909.422 141.724 909.422 132.736C909.422 125.661 910.712 119.698 913.314 114.848C915.916 109.842 919.451 105.86 923.944 102.923C928.614 99.808 933.973 97.5609 940 96.1815C946.049 94.6241 952.431 93.8454 959.17 93.8454H998.821V81.4084C998.821 72.242 996.308 65.434 991.304 60.9397C986.479 56.4455 978.517 54.1984 967.465 54.1984C957.613 54.1984 950.185 56.0228 945.182 59.6493C940.178 63.2758 937.153 68.6377 936.108 75.7128H914.603C915.471 67.2361 918.139 60.161 922.632 54.4654C927.124 48.5918 933.262 44.0976 941.023 40.9828C948.806 37.8679 957.858 36.3105 968.221 36.3105C974.959 36.3105 981.43 37.0893 987.657 38.6467C993.884 40.2041 999.399 42.7849 1004.25 46.4337C1009.1 50.0824 1012.88 54.9104 1015.66 60.9397C1018.59 66.9914 1020.06 74.5114 1020.06 83.4998V151.669H1032.76V170.069V170.047ZM930.415 132.714C930.415 140.145 932.661 145.662 937.153 149.311C941.646 152.938 948.473 154.762 957.613 154.762C970.4 154.762 980.407 151.736 987.679 145.685C995.107 139.633 998.821 131.601 998.821 121.589V110.443H959.436C950.096 110.443 942.935 112.356 937.932 116.138C933.106 119.943 930.593 125.461 930.415 132.736V132.714Z" fill="#1C4E6D"/>
<path d="M1094.14 168.244C1076.35 168.244 1062.54 162.548 1052.69 151.134C1042.84 139.721 1037.92 123.568 1037.92 102.655C1037.92 88.1486 1040.17 76.0453 1044.66 66.3672C1049.15 56.5111 1055.62 49.08 1064.1 44.0741C1072.57 38.8902 1082.58 36.2871 1094.14 36.2871C1105.71 36.2871 1115.56 39.1349 1123.16 44.8306C1130.77 50.5262 1136.37 58.4022 1140 68.4141C1143.62 78.2702 1145.45 89.6615 1145.45 102.632C1145.45 115.603 1143.62 126.572 1140 136.584C1136.37 146.44 1130.75 154.205 1123.16 159.923C1115.56 165.462 1105.88 168.221 1094.14 168.221V168.244ZM1099.59 150.089C1112.71 150.089 1122.38 145.861 1128.61 137.385C1134.84 128.908 1137.93 117.339 1137.93 102.655C1137.93 87.9706 1134.82 75.8674 1128.61 67.4129C1122.38 58.9362 1112.71 54.7089 1099.59 54.7089C1085.78 54.7089 1075.57 58.9362 1069.01 67.4129C1062.45 75.8896 1059.16 87.6369 1059.16 102.655C1059.16 117.672 1062.45 128.93 1069.01 137.385C1075.57 145.861 1085.78 150.089 1099.59 150.089ZM1138.2 39.1349H1159.19V170.046H1137.95V71.0172L1138.22 69.1928V39.1127L1138.2 39.1349ZM1159.19 166.931C1159.37 186.977 1154.87 201.661 1145.71 211.005C1136.55 220.327 1122.47 225 1103.48 225C1090.69 225 1080.24 223.353 1072.12 220.083C1064.19 216.968 1058.14 212.385 1054 206.355C1050.02 200.482 1047.62 193.473 1046.75 185.353H1069.03C1069.55 190.025 1070.77 193.985 1072.66 197.278C1074.73 200.571 1078.11 202.974 1082.75 204.531C1087.6 206.088 1094.5 206.867 1103.48 206.867C1112.98 206.867 1120.16 205.399 1124.99 202.462C1129.99 199.703 1133.37 195.387 1135.08 189.513C1136.97 183.64 1137.93 176.12 1137.93 166.953H1159.17L1159.19 166.931Z" fill="#1C4E6D"/>
<path d="M1188.65 95.1351H1276.74C1276.56 81.6524 1273.36 71.4626 1267.15 64.5432C1261.11 57.6239 1251.85 54.1754 1239.42 54.1754C1225.61 54.1754 1215.49 58.4026 1209.11 66.8793C1202.73 75.1781 1199.53 87.526 1199.53 103.946C1199.53 120.365 1202.64 133.403 1208.84 142.057C1215.23 150.534 1226.04 154.761 1241.22 154.761C1251.41 154.761 1258.84 153.115 1263.51 149.844C1268.18 146.574 1271.36 142.146 1273.09 136.629H1295.64C1293.91 143.548 1290.82 149.755 1286.32 155.295C1281.83 160.657 1275.87 164.884 1268.44 167.999C1261.19 171.114 1252.12 172.671 1241.25 172.671C1220.52 172.671 1204.8 166.709 1194.1 154.784C1183.56 142.858 1178.29 126.105 1178.29 104.502C1178.29 82.8983 1183.56 65.7002 1194.1 53.9529C1204.82 42.2057 1219.92 36.332 1239.45 36.332C1250.16 36.332 1259.9 38.5791 1268.73 43.0734C1277.54 47.5676 1284.63 54.7316 1289.97 64.5877C1295.33 74.4439 1298 87.6595 1298 104.257V111.51H1188.41L1188.67 95.1796L1188.65 95.1351Z" fill="#1C4E6D"/>
</g>
<defs>
<clipPath id="clip0_446_1516">
<rect width="1298" height="225" fill="white"/>
</clipPath>
</defs>
</svg>
