<svg width="584" height="237" viewBox="0 0 584 237" fill="none" xmlns="http://www.w3.org/2000/svg">
<g clip-path="url(#clip0_445_1486)">
<path d="M28.1978 212.67C18.7178 212.67 11.6578 210.03 6.99781 204.75C2.33781 199.39 0.0078125 191.82 0.0078125 182.03C0.0078125 172.24 2.41781 164.71 7.22781 159.43C12.0478 154.07 18.9578 151.39 27.9678 151.39C32.5478 151.39 36.5878 152.21 40.0878 153.84C43.5878 155.39 46.4178 157.57 48.5978 160.36C50.7678 163.16 52.0978 166.42 52.5578 170.15H42.8878C42.4178 167.12 41.0578 164.64 38.8078 162.69C36.6378 160.67 33.0578 159.66 28.0878 159.66C21.4878 159.66 16.7478 161.64 13.8778 165.6C11.0078 169.48 9.56781 174.96 9.56781 182.03C9.56781 189.1 11.0078 194.61 13.8778 198.58C16.7478 202.46 21.4878 204.4 28.0878 204.4C32.8278 204.4 36.3578 203.58 38.6878 201.95C41.0178 200.24 42.4178 197.72 42.8778 194.38H52.7778C52.3078 197.8 51.0678 200.91 49.0478 203.7C47.1078 206.42 44.3478 208.59 40.7778 210.22C37.2778 211.85 33.0878 212.67 28.1978 212.67Z" fill="#A24053"/>
<path d="M61.8709 177.84H101.481C101.401 171.78 99.9709 167.2 97.1709 164.09C94.4509 160.98 90.3009 159.43 84.7009 159.43C78.4909 159.43 73.9409 161.33 71.0709 165.14C68.2009 168.87 66.7609 174.42 66.7609 181.8C66.7609 189.18 68.1609 195.04 70.9509 198.93C73.8209 202.74 78.6809 204.64 85.5109 204.64C90.0909 204.64 93.4309 203.9 95.5309 202.43C97.6309 200.96 99.0609 198.97 99.8409 196.49H109.981C109.201 199.6 107.811 202.39 105.791 204.88C103.771 207.29 101.091 209.19 97.7509 210.59C94.4909 211.99 90.4109 212.69 85.5209 212.69C76.2009 212.69 69.1309 210.01 64.3209 204.65C59.5809 199.29 57.2109 191.76 57.2109 182.05C57.2109 172.34 59.5809 164.61 64.3209 159.33C69.1409 154.05 75.9309 151.41 84.7109 151.41C89.5309 151.41 93.9109 152.42 97.8809 154.44C101.841 156.46 105.031 159.68 107.431 164.11C109.841 168.54 111.041 174.48 111.041 181.94V185.2H61.7609L61.8809 177.86L61.8709 177.84Z" fill="#A24053"/>
<path d="M128.948 211.51H119.398V152.67H128.948V161.64C130.808 158.61 133.108 156.16 135.818 154.3C138.618 152.36 142.378 151.39 147.118 151.39C153.568 151.39 158.648 153.22 162.378 156.87C166.108 160.44 167.968 166.39 167.968 174.7V211.52H158.298V175.05C158.298 169.46 157.128 165.5 154.798 163.17C152.468 160.84 149.088 159.67 144.658 159.67C141.478 159.67 138.678 160.25 136.268 161.42C133.938 162.59 132.108 164.41 130.788 166.9C129.548 169.39 128.928 172.73 128.928 176.92V211.52L128.948 211.51Z" fill="#A24053"/>
<path d="M205.429 160.83H191.909V203.36H205.189V211.52H197.269C192.529 211.52 188.839 210.59 186.199 208.72C183.639 206.78 182.359 203.21 182.359 198V160.83H172.219V152.67H182.359V135.08H191.909V152.67H205.429V160.83Z" fill="#A24053"/>
<path d="M211.762 177.84H251.372C251.292 171.78 249.852 167.2 247.062 164.09C244.342 160.98 240.182 159.43 234.592 159.43C228.382 159.43 223.832 161.33 220.962 165.14C218.092 168.87 216.652 174.42 216.652 181.8C216.652 189.18 218.052 195.04 220.842 198.93C223.712 202.74 228.572 204.64 235.402 204.64C239.982 204.64 243.322 203.9 245.422 202.43C247.522 200.96 248.952 198.97 249.732 196.49H259.872C259.092 199.6 257.702 202.39 255.682 204.88C253.662 207.29 250.982 209.19 247.642 210.59C244.382 211.99 240.302 212.69 235.412 212.69C226.092 212.69 219.022 210.01 214.212 204.65C209.472 199.29 207.102 191.76 207.102 182.05C207.102 172.34 209.472 164.61 214.212 159.33C219.032 154.05 225.822 151.41 234.602 151.41C239.422 151.41 243.802 152.42 247.772 154.44C251.732 156.46 254.922 159.68 257.322 164.11C259.732 168.54 260.932 174.48 260.932 181.94V185.2H211.652L211.772 177.86L211.762 177.84Z" fill="#A24053"/>
<path d="M278.839 211.51H269.289V152.67H278.839V163.04C280.239 159.7 282.179 157.14 284.659 155.35C287.219 153.56 290.409 152.67 294.209 152.67H299.449V160.83H292.919C288.339 160.83 284.839 162.15 282.429 164.79C280.019 167.43 278.819 171.39 278.819 176.67V211.51H278.839Z" fill="#A24053"/>
<path d="M362.068 168.17C361.598 165.14 360.358 162.97 358.338 161.65C356.398 160.25 353.448 159.55 349.488 159.55C345.218 159.55 341.958 160.33 339.698 161.88C337.528 163.36 336.438 165.3 336.438 167.71C336.438 170.12 337.288 172.06 338.998 173.3C340.788 174.54 343.468 175.59 347.038 176.45L356.358 178.78C361.868 180.1 365.948 182.08 368.588 184.72C371.228 187.36 372.548 190.86 372.548 195.21C372.548 200.26 370.568 204.45 366.608 207.79C362.648 211.05 356.628 212.68 348.548 212.68C341.328 212.68 335.768 211.24 331.888 208.37C328.008 205.5 325.718 201.07 325.008 195.09H335.028C335.498 198.27 336.658 200.64 338.528 202.2C340.388 203.68 343.658 204.41 348.318 204.41C353.598 204.41 357.328 203.63 359.498 202.08C361.748 200.45 362.878 198.35 362.878 195.79C362.878 193.38 362.058 191.48 360.428 190.08C358.798 188.6 356.158 187.4 352.508 186.47L343.188 184.14C337.828 182.82 333.788 180.88 331.068 178.32C328.348 175.68 326.988 172.34 326.988 168.3C326.988 163.1 328.888 158.98 332.698 155.95C336.578 152.92 342.178 151.41 349.478 151.41C356.238 151.41 361.438 152.85 365.088 155.72C368.818 158.52 370.918 162.67 371.378 168.19H362.058L362.068 168.17Z" fill="#A24053"/>
<path d="M407.28 160.83H393.77V203.36H407.05V211.52H399.13C394.39 211.52 390.7 210.59 388.06 208.72C385.5 206.78 384.21 203.21 384.21 198V160.83H374.07V152.67H384.21V135.08H393.76V152.67H407.27V160.83H407.28Z" fill="#A24053"/>
<path d="M464.397 211.51H458.107C455.237 211.51 453.017 210.54 451.467 208.6C449.917 206.66 449.097 203.47 449.017 199.05L450.297 199.4C448.817 203.44 446.377 206.66 442.957 209.07C439.617 211.48 435.108 212.68 429.438 212.68C425.088 212.68 421.358 212.02 418.258 210.7C415.228 209.38 412.897 207.4 411.267 204.76C409.717 202.12 408.938 198.78 408.938 194.74C408.938 191.56 409.518 188.88 410.688 186.7C411.857 184.45 413.447 182.66 415.467 181.34C417.567 179.94 419.977 178.93 422.688 178.31C425.408 177.61 428.277 177.26 431.307 177.26H449.138V171.67C449.138 167.55 448.008 164.49 445.758 162.47C443.588 160.45 440.008 159.44 435.038 159.44C430.608 159.44 427.267 160.26 425.017 161.89C422.767 163.52 421.407 165.93 420.938 169.11H411.267C411.657 165.3 412.858 162.12 414.878 159.56C416.898 156.92 419.657 154.9 423.147 153.5C426.647 152.1 430.718 151.4 435.378 151.4C438.408 151.4 441.317 151.75 444.117 152.45C446.917 153.15 449.397 154.31 451.577 155.95C453.757 157.59 455.457 159.76 456.707 162.47C458.027 165.19 458.688 168.57 458.688 172.61V203.25H464.397V211.52V211.51ZM418.378 194.73C418.378 198.07 419.388 200.55 421.408 202.19C423.428 203.82 426.497 204.64 430.607 204.64C436.357 204.64 440.858 203.28 444.128 200.56C447.468 197.84 449.138 194.23 449.138 189.73V184.72H431.427C427.227 184.72 424.008 185.58 421.758 187.28C419.588 188.99 418.458 191.47 418.378 194.74V194.73Z" fill="#A24053"/>
<path d="M491.999 210.69C483.999 210.69 477.789 208.13 473.359 203C468.929 197.87 466.719 190.61 466.719 181.21C466.719 174.69 467.729 169.25 469.749 164.9C471.769 160.47 474.679 157.13 478.489 154.88C482.299 152.55 486.799 151.38 491.999 151.38C497.199 151.38 501.629 152.66 505.049 155.22C508.469 157.78 510.989 161.32 512.619 165.82C514.249 170.25 515.069 175.37 515.069 181.2C515.069 187.03 514.249 191.96 512.619 196.46C510.989 200.89 508.459 204.38 505.049 206.95C501.629 209.44 497.279 210.68 491.999 210.68V210.69ZM494.449 202.54C500.349 202.54 504.699 200.64 507.499 196.83C510.299 193.02 511.689 187.82 511.689 181.22C511.689 174.62 510.289 169.18 507.499 165.38C504.699 161.57 500.349 159.67 494.449 159.67C488.239 159.67 483.649 161.57 480.699 165.38C477.749 169.19 476.269 174.47 476.269 181.22C476.269 187.97 477.749 193.03 480.699 196.83C483.649 200.64 488.239 202.54 494.449 202.54ZM511.809 152.67H521.249V211.51H511.699V167L511.819 166.18V152.66L511.809 152.67ZM521.249 210.11C521.329 219.12 519.309 225.72 515.189 229.92C511.069 234.11 504.739 236.21 496.199 236.21C490.449 236.21 485.749 235.47 482.099 234C478.529 232.6 475.809 230.54 473.949 227.83C472.159 225.19 471.079 222.04 470.689 218.39H480.709C480.939 220.49 481.489 222.27 482.339 223.75C483.269 225.23 484.789 226.31 486.879 227.01C489.059 227.71 492.159 228.06 496.199 228.06C500.469 228.06 503.699 227.4 505.869 226.08C508.119 224.84 509.639 222.9 510.409 220.26C511.259 217.62 511.689 214.24 511.689 210.12H521.239L521.249 210.11Z" fill="#A24053"/>
<path d="M534.504 177.84H574.114C574.034 171.78 572.594 167.2 569.804 164.09C567.084 160.98 562.924 159.43 557.334 159.43C551.124 159.43 546.574 161.33 543.704 165.14C540.834 168.87 539.394 174.42 539.394 181.8C539.394 189.18 540.794 195.04 543.584 198.93C546.454 202.74 551.314 204.64 558.144 204.64C562.724 204.64 566.064 203.9 568.164 202.43C570.264 200.96 571.694 198.97 572.474 196.49H582.614C581.834 199.6 580.444 202.39 578.424 204.88C576.404 207.29 573.724 209.19 570.384 210.59C567.124 211.99 563.044 212.69 558.154 212.69C548.834 212.69 541.764 210.01 536.954 204.65C532.214 199.29 529.844 191.76 529.844 182.05C529.844 172.34 532.214 164.61 536.954 159.33C541.774 154.05 548.564 151.41 557.344 151.41C562.164 151.41 566.544 152.42 570.514 154.44C574.474 156.46 577.664 159.68 580.064 164.11C582.474 168.54 583.674 174.48 583.674 181.94V185.2H534.394L534.514 177.86L534.504 177.84Z" fill="#A24053"/>
<path d="M309.957 102.16H313.947C332.877 102.16 348.267 86.76 348.267 67.84V67.29C348.267 48.37 332.877 32.97 313.947 32.97H275.687H271.627C261.627 32.97 253.487 41.1 253.487 51.11C253.487 61.12 261.617 69.25 271.627 69.25H315.317V66.52C315.317 64.82 313.937 63.43 312.227 63.43H271.627C264.837 63.43 259.317 57.91 259.317 51.12C259.317 44.33 264.837 38.81 271.627 38.81H313.947C329.667 38.81 342.447 51.6 342.447 67.32V67.87C342.447 83.59 329.667 96.37 313.947 96.37H309.867V96.4H271.577C246.317 96.4 225.827 75.61 226.307 50.25C226.777 25.46 247.537 5.86004 272.337 5.86004H275.687V2.14004C275.687 0.980039 274.747 0.0400391 273.587 0.0400391H272.357C244.307 0.0400391 220.907 22.3 220.467 50.33C220.037 78.86 243.117 102.22 271.557 102.22H309.937V102.19L309.957 102.16Z" fill="#A24053"/>
<path d="M312.883 16.4902H309.883V16.5202H271.343C252.413 16.5202 237.023 31.9102 237.023 50.8402V51.3902C237.023 70.3202 252.413 85.7102 271.343 85.7102H309.883V85.7302H313.673C323.673 85.7302 331.813 77.6002 331.813 67.5902C331.813 57.5802 323.683 49.4502 313.673 49.4502H269.973V52.1802C269.973 53.8802 271.353 55.2702 273.063 55.2702H313.673C320.463 55.2702 325.983 60.8002 325.983 67.5902C325.983 74.3802 320.463 79.9002 313.673 79.9002H309.963V79.8802H271.343C255.623 79.8802 242.843 67.1002 242.843 51.3802V50.8302C242.843 35.1102 255.623 22.3302 271.343 22.3302H309.963V22.3002H312.903C337.693 22.3002 358.453 41.9102 358.933 66.6902C359.423 92.0502 338.913 112.84 313.663 112.84H309.893V116.11C309.893 117.51 311.033 118.66 312.443 118.66H313.673C342.113 118.66 365.203 95.3102 364.763 66.7702C364.343 38.7402 340.933 16.4702 312.893 16.4702L312.883 16.4902Z" fill="#A24053"/>
</g>
<defs>
<clipPath id="clip0_445_1486">
<rect width="583.67" height="236.21" fill="white"/>
</clipPath>
</defs>
</svg>
