<svg width="590" height="102" viewBox="0 0 590 102" fill="none" xmlns="http://www.w3.org/2000/svg">
<path d="M170.592 73.8603C163.437 73.8603 158.101 71.8664 154.582 67.8788C151.064 63.8325 149.305 58.115 149.305 50.7262C149.305 43.3373 151.123 37.6491 154.758 33.6615C158.394 29.6152 163.613 27.5921 170.416 27.5921C173.875 27.5921 176.925 28.2078 179.564 29.4393C182.203 30.6121 184.343 32.2541 185.985 34.3652C187.627 36.4763 188.624 38.9392 188.976 41.754H181.675C181.323 39.467 180.297 37.5905 178.596 36.1244C176.954 34.5997 174.257 33.8374 170.504 33.8374C165.519 33.8374 161.942 35.3328 159.772 38.3235C157.602 41.2556 156.518 45.3898 156.518 50.7262C156.518 56.0625 157.602 60.2261 159.772 63.2168C161.942 66.1489 165.519 67.6149 170.504 67.6149C174.081 67.6149 176.749 66.9992 178.508 65.7677C180.267 64.4776 181.323 62.5718 181.675 60.0502H189.152C188.8 62.6304 187.862 64.9761 186.337 67.0872C184.871 69.1396 182.789 70.7816 180.092 72.013C177.453 73.2445 174.286 73.8603 170.592 73.8603Z" fill="white"/>
<path d="M196.014 47.5595H225.921C225.863 42.9855 224.778 39.5256 222.667 37.18C220.614 34.8343 217.477 33.6615 213.255 33.6615C208.563 33.6615 205.133 35.0982 202.963 37.9716C200.793 40.7864 199.708 44.9793 199.708 50.5502C199.708 56.2385 200.764 60.5486 202.875 63.4807C205.045 66.3541 208.71 67.7909 213.87 67.7909C217.33 67.7909 219.852 67.2338 221.435 66.1196C223.018 65.0054 224.103 63.51 224.69 61.6335H232.342C231.756 63.9792 230.701 66.0902 229.176 67.9668C227.651 69.7847 225.628 71.2214 223.106 72.2769C220.644 73.3325 217.565 73.8603 213.87 73.8603C206.833 73.8603 201.497 71.8371 197.861 67.7909C194.284 63.7446 192.496 58.0564 192.496 50.7262C192.496 43.2787 194.284 37.5611 197.861 33.5735C201.497 29.5859 206.628 27.5921 213.255 27.5921C216.89 27.5921 220.204 28.3544 223.194 29.8791C226.185 31.4038 228.589 33.8374 230.407 37.18C232.225 40.5225 233.134 45.0086 233.134 50.6382V53.1011H195.926L196.014 47.5595Z" fill="white"/>
<path d="M246.659 72.9806H239.446V28.5597H246.659V35.3328C248.066 33.0457 249.796 31.1985 251.849 29.7911C253.96 28.3251 256.804 27.5921 260.381 27.5921C265.248 27.5921 269.089 28.9701 271.904 31.7263C274.719 34.4238 276.126 38.9099 276.126 45.1845V72.9806H268.826V45.4484C268.826 41.2262 267.946 38.2355 266.187 36.4763C264.427 34.717 261.877 33.8374 258.534 33.8374C256.13 33.8374 254.019 34.2772 252.201 35.1568C250.441 36.0365 249.063 37.4145 248.066 39.2911C247.128 41.1676 246.659 43.6892 246.659 46.8558V72.9806Z" fill="white"/>
<path d="M304.404 34.717H294.201V66.8233H304.228V72.9806H298.247C294.67 72.9806 291.884 72.2769 289.89 70.8695C287.955 69.4035 286.988 66.706 286.988 62.777V34.717H279.335V28.5597H286.988V15.2773H294.201V28.5597H304.404V34.717Z" fill="white"/>
<path d="M309.18 47.5595H339.087C339.028 42.9855 337.943 39.5256 335.832 37.18C333.78 34.8343 330.642 33.6615 326.42 33.6615C321.729 33.6615 318.298 35.0982 316.129 37.9716C313.959 40.7864 312.874 44.9793 312.874 50.5502C312.874 56.2385 313.93 60.5486 316.041 63.4807C318.21 66.3541 321.876 67.7909 327.036 67.7909C330.496 67.7909 333.017 67.2338 334.601 66.1196C336.184 65.0054 337.269 63.51 337.855 61.6335H345.508C344.922 63.9792 343.866 66.0902 342.341 67.9668C340.817 69.7847 338.794 71.2214 336.272 72.2769C333.809 73.3325 330.73 73.8603 327.036 73.8603C319.999 73.8603 314.663 71.8371 311.027 67.7909C307.45 63.7446 305.661 58.0564 305.661 50.7262C305.661 43.2787 307.45 37.5611 311.027 33.5735C314.663 29.5859 319.794 27.5921 326.42 27.5921C330.056 27.5921 333.369 28.3544 336.36 29.8791C339.351 31.4038 341.755 33.8374 343.573 37.18C345.391 40.5225 346.3 45.0086 346.3 50.6382V53.1011H309.092L309.18 47.5595Z" fill="white"/>
<path d="M359.825 72.9806H352.612V28.5597H359.825V36.3883C360.88 33.8667 362.346 31.9315 364.223 30.5828C366.158 29.234 368.562 28.5597 371.436 28.5597H375.394V34.717H370.468C367.008 34.717 364.369 35.7139 362.551 37.7077C360.734 39.7015 359.825 42.6923 359.825 46.6799V72.9806Z" fill="white"/>
<path d="M422.659 40.2586C422.307 37.9716 421.368 36.3297 419.844 35.3328C418.378 34.2772 416.149 33.7494 413.159 33.7494C409.933 33.7494 407.47 34.3358 405.77 35.5087C404.128 36.6229 403.307 38.0889 403.307 39.9068C403.307 41.7833 403.952 43.1907 405.242 44.129C406.591 45.0673 408.614 45.8589 411.311 46.504L418.348 48.2632C422.512 49.2601 425.591 50.7555 427.584 52.7493C429.578 54.7431 430.575 57.382 430.575 60.6659C430.575 64.4776 429.08 67.6442 426.089 70.1658C423.098 72.6288 418.554 73.8603 412.455 73.8603C407.001 73.8603 402.808 72.7754 399.876 70.6056C396.944 68.4359 395.214 65.0933 394.687 60.5779H402.251C402.603 62.9822 403.483 64.7708 404.89 65.9436C406.298 67.0578 408.761 67.6149 412.279 67.6149C416.267 67.6149 419.081 67.0285 420.723 65.8557C422.424 64.6242 423.274 63.0409 423.274 61.1057C423.274 59.2878 422.659 57.8511 421.427 56.7956C420.196 55.6814 418.202 54.7724 415.446 54.0687L408.409 52.3095C404.362 51.3126 401.313 49.8465 399.261 47.9114C397.208 45.9176 396.182 43.396 396.182 40.3466C396.182 36.4176 397.619 33.3096 400.492 31.0226C403.424 28.7356 407.646 27.5921 413.159 27.5921C418.26 27.5921 422.189 28.6769 424.946 30.8467C427.76 32.9578 429.344 36.0951 429.696 40.2586H422.659Z" fill="white"/>
<path d="M456.792 34.717H446.588V66.8233H456.616V72.9806H450.635C447.058 72.9806 444.272 72.2769 442.278 70.8695C440.343 69.4035 439.376 66.706 439.376 62.777V34.717H431.723V28.5597H439.376V15.2773H446.588V28.5597H456.792V34.717Z" fill="white"/>
<path d="M499.917 72.9806H495.167C492.997 72.9806 491.326 72.2476 490.153 70.7816C488.98 69.3155 488.365 66.9112 488.306 63.5687L489.274 63.8325C488.159 66.8819 486.312 69.3155 483.732 71.1334C481.21 72.9513 477.809 73.8603 473.528 73.8603C470.244 73.8603 467.43 73.3618 465.084 72.3649C462.797 71.368 461.038 69.8726 459.806 67.8788C458.633 65.885 458.047 63.3634 458.047 60.3141C458.047 57.9098 458.487 55.8866 459.366 54.2447C460.246 52.544 461.448 51.1953 462.973 50.1984C464.556 49.1428 466.374 48.3805 468.426 47.9114C470.479 47.3836 472.649 47.1197 474.936 47.1197H488.394V42.8975C488.394 39.7895 487.544 37.4732 485.843 35.9485C484.201 34.4238 481.504 33.6615 477.75 33.6615C474.408 33.6615 471.886 34.2772 470.186 35.5087C468.485 36.7401 467.459 38.558 467.107 40.9623H459.806C460.099 38.0889 461.008 35.6846 462.533 33.7494C464.058 31.7556 466.139 30.2309 468.778 29.1754C471.417 28.1198 474.496 27.5921 478.014 27.5921C480.301 27.5921 482.5 27.856 484.612 28.3837C486.723 28.9115 488.599 29.7911 490.241 31.0226C491.883 32.2541 493.173 33.896 494.112 35.9485C495.108 38.0009 495.607 40.5519 495.607 43.6012V66.7353H499.917V72.9806ZM465.172 60.3141C465.172 62.8356 465.934 64.7122 467.459 65.9436C468.984 67.1751 471.3 67.7909 474.408 67.7909C478.747 67.7909 482.149 66.7646 484.612 64.7122C487.133 62.6597 488.394 59.9329 488.394 56.5317V52.7493H475.024C471.857 52.7493 469.423 53.3944 467.723 54.6845C466.081 55.9746 465.231 57.8511 465.172 60.3141Z" fill="white"/>
<path d="M520.757 72.3649C514.717 72.3649 510.026 70.4297 506.683 66.5594C503.341 62.689 501.669 57.2061 501.669 50.1104C501.669 45.1845 502.432 41.0796 503.956 37.7957C505.481 34.4531 507.68 31.9315 510.554 30.2309C513.427 28.4717 516.828 27.5921 520.757 27.5921C524.745 27.5921 528.029 28.5597 530.609 30.4948C533.189 32.43 535.095 35.0982 536.327 38.4994C537.558 41.842 538.174 45.7123 538.174 50.1104C538.174 54.3913 537.558 58.2323 536.327 61.6335C535.095 64.9761 533.189 67.6149 530.609 69.5501C528.029 71.4266 524.745 72.3649 520.757 72.3649ZM522.604 66.2075C527.061 66.2075 530.345 64.7708 532.456 61.8974C534.567 59.0239 535.623 55.095 535.623 50.1104C535.623 45.0086 534.567 41.021 532.456 38.1475C530.345 35.2741 527.061 33.8374 522.604 33.8374C517.913 33.8374 514.453 35.2741 512.225 38.1475C509.996 41.021 508.882 45.0086 508.882 50.1104C508.882 55.095 509.996 59.0239 512.225 61.8974C514.453 64.7708 517.913 66.2075 522.604 66.2075ZM535.711 28.5597H542.836V72.9806H535.623V39.379L535.711 38.7633V28.5597ZM542.836 71.9251C542.894 78.7275 541.37 83.712 538.262 86.8787C535.154 90.0453 530.374 91.6286 523.924 91.6286C519.584 91.6286 516.037 91.0715 513.28 89.9574C510.583 88.9018 508.53 87.3478 507.123 85.2954C505.774 83.3015 504.953 80.9266 504.66 78.1704H512.225C512.401 79.7537 512.811 81.1025 513.456 82.2167C514.16 83.3309 515.304 84.1518 516.887 84.6796C518.529 85.2074 520.874 85.4713 523.924 85.4713C527.149 85.4713 529.583 84.9728 531.225 83.9759C532.925 83.0377 534.069 81.5716 534.655 79.5778C535.3 77.584 535.623 75.0331 535.623 71.9251H542.836Z" fill="white"/>
<path d="M552.846 47.5595H582.753C582.694 42.9855 581.609 39.5256 579.498 37.18C577.446 34.8343 574.308 33.6615 570.086 33.6615C565.395 33.6615 561.964 35.0982 559.795 37.9716C557.625 40.7864 556.54 44.9793 556.54 50.5502C556.54 56.2385 557.596 60.5486 559.707 63.4807C561.876 66.3541 565.541 67.7909 570.702 67.7909C574.162 67.7909 576.683 67.2338 578.267 66.1196C579.85 65.0054 580.935 63.51 581.521 61.6335H589.174C588.588 63.9792 587.532 66.0902 586.007 67.9668C584.483 69.7847 582.46 71.2214 579.938 72.2769C577.475 73.3325 574.396 73.8603 570.702 73.8603C563.665 73.8603 558.329 71.8371 554.693 67.7909C551.116 63.7446 549.327 58.0564 549.327 50.7262C549.327 43.2787 551.116 37.5611 554.693 33.5735C558.329 29.5859 563.46 27.5921 570.086 27.5921C573.722 27.5921 577.035 28.3544 580.026 29.8791C583.017 31.4038 585.421 33.8374 587.239 37.18C589.057 40.5225 589.966 45.0086 589.966 50.6382V53.1011H552.758L552.846 47.5595Z" fill="white"/>
<path d="M76.8124 87.6986H80.2352C96.4856 87.6986 109.7 74.4779 109.7 58.2361V57.7666C109.7 41.5247 96.4856 28.304 80.2352 28.304H76.8124L47.3935 28.2965H43.9102C35.323 28.2965 28.3412 35.2778 28.3412 43.8644C28.3412 52.4511 35.323 59.4324 43.9102 59.4324H81.4165V57.0851C81.4165 55.6237 80.2276 54.4349 78.7661 54.4349H43.9102C38.0794 54.4349 33.339 49.6949 33.339 43.8644C33.339 38.034 38.0794 33.294 43.9102 33.294H76.7443L80.2427 33.3015C93.7368 33.3015 104.709 44.2733 104.709 57.7666V58.2361C104.709 71.7293 93.7368 82.7011 80.2427 82.7011H76.7443V82.7238H43.8723C22.1924 82.7238 4.6016 64.8767 5.01051 43.1072C5.41185 21.83 23.2374 4.9975 44.5235 4.9975H47.4011V1.80213C47.4011 0.802629 46.5908 0 45.5988 0H44.5462C20.4659 0 0.376177 19.1117 0.00512698 43.1754C-0.365923 67.6707 19.4512 87.7213 43.8647 87.7213H76.8124V87.6986Z" fill="white"/>
<path d="M79.3183 14.1502H76.7437V14.1729H43.6597C27.4092 14.1729 14.1953 27.386 14.1953 43.6354V44.1049C14.1953 60.3543 27.4092 73.5674 43.6597 73.5674H76.7437V73.5826H79.9999C88.587 73.5826 95.5688 66.6012 95.5688 58.0146C95.5688 49.428 88.587 42.4466 79.9999 42.4466H76.8119L42.486 42.439V44.7864C42.486 46.2477 43.6748 47.4365 45.1363 47.4365H76.7437L79.9999 47.4441C85.8306 47.4441 90.571 52.1842 90.571 58.0146C90.571 63.845 85.8306 68.5851 79.9999 68.5851H76.8119V68.5699H43.6597C30.1656 68.5699 19.1931 57.5981 19.1931 44.1049V43.6354C19.1931 30.1422 30.1656 19.1704 43.6597 19.1704H76.8119V19.1477H79.3335C100.612 19.1477 118.438 35.9802 118.846 57.2574C119.263 79.0268 101.665 96.874 79.9847 96.874H76.7437V99.6832C76.7437 100.887 77.7206 101.871 78.9321 101.871H79.9923C104.406 101.871 124.223 81.8285 123.852 57.3255C123.488 33.2618 103.399 14.1426 79.3259 14.1426L79.3183 14.1502Z" fill="white"/>
</svg>
