<svg width="687" height="565" viewBox="0 0 687 565" fill="none" xmlns="http://www.w3.org/2000/svg">
<path d="M426.024 486.402H445.008C535.138 486.402 608.426 413.076 608.426 322.994V320.39C608.426 230.308 535.138 156.983 445.008 156.983H426.024L262.858 156.94H243.539C195.912 156.94 157.189 195.661 157.189 243.285C157.189 290.909 195.912 329.63 243.539 329.63H451.56V316.611C451.56 308.505 444.966 301.912 436.86 301.912H243.539C211.199 301.912 184.908 275.622 184.908 243.285C184.908 210.948 211.199 184.658 243.539 184.658H425.646L445.05 184.7C519.892 184.7 580.749 245.553 580.749 320.39V322.994C580.749 397.832 519.892 458.685 445.05 458.685H425.646V458.811H243.329C123.086 458.811 25.5218 359.825 27.7898 239.085C30.0157 121.076 128.881 27.7176 246.941 27.7176H262.9V9.99514C262.9 4.45162 258.406 0 252.904 0H247.067C113.51 0 2.08639 105.999 0.0284357 239.463C-2.02952 375.322 107.882 486.528 243.287 486.528H426.024V486.402Z" fill="#1C4E6D"/>
<path d="M439.934 78.4717H425.654V78.5977H242.16C152.03 78.5977 78.7422 151.881 78.7422 242.006V244.609C78.7422 334.734 152.03 408.017 242.16 408.017H425.654V408.101H443.713C491.34 408.101 530.063 369.381 530.063 321.757C530.063 274.133 491.34 235.412 443.713 235.412H426.032L235.65 235.37V248.389C235.65 256.494 242.244 263.088 250.35 263.088H425.654L443.713 263.13C476.053 263.13 502.344 289.42 502.344 321.757C502.344 354.094 476.053 380.384 443.713 380.384H426.032V380.3H242.16C167.318 380.3 106.462 319.447 106.462 244.609V242.006C106.462 167.168 167.318 106.315 242.16 106.315H426.032V106.189H440.018C558.035 106.189 656.9 199.547 659.168 317.557C661.478 438.297 563.873 537.282 443.629 537.282H425.654V552.863C425.654 559.54 431.072 565 437.792 565H443.671C579.076 565 688.988 453.835 686.93 317.935C684.914 184.471 573.49 78.4297 439.976 78.4297L439.934 78.4717Z" fill="#1C4E6D"/>
</svg>
