<svg width="760" height="132" viewBox="0 0 760 132" fill="none" xmlns="http://www.w3.org/2000/svg">
<path d="M219.772 95.1508C210.552 95.1508 203.682 92.5808 199.152 87.4508C194.622 82.2408 192.352 74.8708 192.352 65.3508C192.352 55.8308 194.692 48.5008 199.372 43.3708C204.052 38.1608 210.782 35.5508 219.542 35.5508C224.002 35.5508 227.922 36.3408 231.322 37.9308C234.722 39.4408 237.482 41.5608 239.592 44.2808C241.712 47.0008 242.992 50.1708 243.442 53.8008H234.032C233.582 50.8508 232.252 48.4408 230.062 46.5508C227.942 44.5908 224.472 43.6008 219.642 43.6008C213.222 43.6008 208.612 45.5308 205.822 49.3808C203.022 53.1608 201.632 58.4808 201.632 65.3608C201.632 72.2408 203.032 77.6008 205.822 81.4508C208.622 85.2308 213.222 87.1208 219.642 87.1208C224.252 87.1208 227.682 86.3308 229.952 84.7408C232.222 83.0808 233.582 80.6208 234.032 77.3708H243.662C243.212 80.6908 242.002 83.7208 240.032 86.4408C238.142 89.0808 235.462 91.2008 231.992 92.7908C228.592 94.3808 224.512 95.1708 219.752 95.1708L219.772 95.1508Z" fill="#1C4E6D"/>
<path d="M252.504 61.2691H291.034C290.964 55.3791 289.564 50.9191 286.844 47.8991C284.204 44.8791 280.154 43.3691 274.724 43.3691C268.684 43.3691 264.264 45.2191 261.464 48.9191C258.664 52.5491 257.274 57.9491 257.274 65.1191C257.274 72.2891 258.634 77.9991 261.354 81.7791C264.154 85.4791 268.874 87.3291 275.514 87.3291C279.974 87.3291 283.224 86.6091 285.264 85.1791C287.304 83.7391 288.704 81.8191 289.454 79.3991H299.314C298.564 82.4191 297.204 85.1391 295.234 87.5591C293.274 89.8991 290.664 91.7491 287.414 93.1091C284.244 94.4691 280.274 95.1491 275.514 95.1491C266.444 95.1491 259.574 92.5391 254.894 87.3291C250.284 82.1191 247.984 74.7891 247.984 65.3491C247.984 55.9091 250.284 48.3891 254.894 43.2491C259.574 38.1091 266.184 35.5391 274.724 35.5391C279.404 35.5391 283.674 36.5191 287.524 38.4891C291.374 40.4491 294.474 43.5891 296.814 47.8891C299.154 52.1991 300.324 57.9791 300.324 65.2291V68.3991H252.394L252.504 61.2591V61.2691Z" fill="#1C4E6D"/>
<path d="M317.759 94.0108H308.469V36.7908H317.759V45.5208C319.569 42.5708 321.799 40.1908 324.449 38.3808C327.169 36.4908 330.829 35.5508 335.439 35.5508C341.709 35.5508 346.659 37.3308 350.279 40.8808C353.909 44.3608 355.719 50.1308 355.719 58.2208V94.0308H346.319V58.5608C346.319 53.1208 345.189 49.2708 342.919 47.0008C340.649 44.7308 337.369 43.6008 333.059 43.6008C329.959 43.6008 327.239 44.1708 324.899 45.3008C322.629 46.4308 320.859 48.2108 319.569 50.6308C318.359 53.0508 317.759 56.3008 317.759 60.3808V94.0308V94.0108Z" fill="#1C4E6D"/>
<path d="M392.142 44.7199H379.002V86.0799H391.922V94.0099H384.222C379.612 94.0099 376.022 93.0999 373.452 91.2899C370.962 89.3999 369.712 85.9299 369.712 80.8599V44.7099H359.852V36.7799H369.712V19.6699H379.002V36.7799H392.142V44.7099V44.7199Z" fill="#1C4E6D"/>
<path d="M398.286 61.2691H436.816C436.736 55.3791 435.346 50.9191 432.626 47.8991C429.986 44.8791 425.936 43.3691 420.506 43.3691C414.466 43.3691 410.046 45.2191 407.246 48.9191C404.446 52.5491 403.056 57.9491 403.056 65.1191C403.056 72.2891 404.416 77.9991 407.136 81.7791C409.926 85.4791 414.656 87.3291 421.296 87.3291C425.756 87.3291 428.996 86.6091 431.046 85.1791C433.086 83.7391 434.486 81.8191 435.236 79.3991H445.096C444.346 82.4191 442.976 85.1391 441.016 87.5591C439.056 89.8991 436.446 91.7491 433.196 93.1091C430.026 94.4691 426.056 95.1491 421.296 95.1491C412.226 95.1491 405.356 92.5391 400.676 87.3291C396.066 82.1191 393.766 74.7891 393.766 65.3491C393.766 55.9091 396.066 48.3891 400.676 43.2491C405.356 38.1091 411.966 35.5391 420.506 35.5391C425.186 35.5391 429.456 36.5191 433.306 38.4891C437.156 40.4491 440.256 43.5891 442.596 47.8891C444.936 52.1991 446.106 57.9791 446.106 65.2291V68.3991H398.176L398.286 61.2591V61.2691Z" fill="#1C4E6D"/>
<path d="M463.54 94.0093H454.25V36.7893H463.54V46.8693C464.9 43.6193 466.79 41.1293 469.21 39.3893C471.7 37.6493 474.8 36.7793 478.5 36.7793H483.6V44.7093H477.25C472.79 44.7093 469.39 45.9893 467.05 48.5593C464.71 51.1293 463.54 54.9793 463.54 60.1193V93.9993V94.0093Z" fill="#1C4E6D"/>
<path d="M544.481 51.8608C544.031 48.9108 542.821 46.8008 540.851 45.5108C538.961 44.1508 536.091 43.4708 532.241 43.4708C528.081 43.4708 524.911 44.2308 522.721 45.7408C520.601 47.1808 519.551 49.0608 519.551 51.4108C519.551 53.7608 520.381 55.6408 522.041 56.8508C523.781 58.0608 526.381 59.0808 529.861 59.9108L538.931 62.1808C544.291 63.4608 548.261 65.3908 550.831 67.9608C553.401 70.5308 554.681 73.9308 554.681 78.1608C554.681 83.0708 552.751 87.1508 548.901 90.4008C545.051 93.5708 539.191 95.1608 531.341 95.1608C524.311 95.1608 518.911 93.7608 515.141 90.9708C511.361 88.1708 509.131 83.8708 508.461 78.0508H518.201C518.651 81.1508 519.791 83.4508 521.601 84.9608C523.411 86.4008 526.591 87.1108 531.121 87.1108C536.261 87.1108 539.881 86.3608 542.001 84.8408C544.191 83.2508 545.291 81.2108 545.291 78.7208C545.291 76.3808 544.501 74.5308 542.911 73.1708C541.321 71.7308 538.761 70.5608 535.211 69.6608L526.141 67.3908C520.931 66.1108 517.001 64.2208 514.361 61.7208C511.721 59.1508 510.391 55.9008 510.391 51.9808C510.391 46.9208 512.241 42.9108 515.941 39.9708C519.721 37.0208 525.161 35.5508 532.261 35.5508C538.831 35.5508 543.891 36.9508 547.441 39.7408C551.071 42.4608 553.111 46.5008 553.561 51.8608H544.491H544.481Z" fill="#1C4E6D"/>
<path d="M588.446 44.7199H575.306V86.0799H588.226V94.0099H580.526C575.916 94.0099 572.326 93.0999 569.756 91.2899C567.266 89.3999 566.016 85.9299 566.016 80.8599V44.7099H556.156V36.7799H566.016V19.6699H575.306V36.7799H588.446V44.7099V44.7199Z" fill="#1C4E6D"/>
<path d="M643.995 94.0095H637.875C635.075 94.0095 632.925 93.0695 631.415 91.1795C629.905 89.2895 629.115 86.1895 629.035 81.8895L630.285 82.2295C628.845 86.1595 626.465 89.2895 623.145 91.6295C619.895 93.9695 615.515 95.1395 610.005 95.1395C605.775 95.1395 602.145 94.4995 599.125 93.2095C596.175 91.9295 593.915 89.9995 592.325 87.4295C590.815 84.8595 590.055 81.6095 590.055 77.6795C590.055 74.5795 590.625 71.9795 591.755 69.8595C592.885 67.6695 594.435 65.9295 596.405 64.6495C598.445 63.2895 600.785 62.3095 603.425 61.6995C606.065 61.0195 608.865 60.6795 611.815 60.6795H629.155V55.2395C629.155 51.2395 628.065 48.2495 625.865 46.2895C623.745 44.3295 620.275 43.3395 615.435 43.3395C611.125 43.3395 607.885 44.1295 605.695 45.7195C603.505 47.3095 602.185 49.6495 601.725 52.7395H592.315C592.695 49.0395 593.865 45.9395 595.825 43.4495C597.785 40.8795 600.475 38.9195 603.865 37.5595C607.265 36.1995 611.235 35.5195 615.765 35.5195C618.715 35.5195 621.545 35.8595 624.265 36.5395C626.985 37.2195 629.405 38.3495 631.515 39.9395C633.635 41.5295 635.295 43.6395 636.505 46.2895C637.785 48.9295 638.435 52.2195 638.435 56.1495V85.9495H643.985V93.9995L643.995 94.0095ZM599.235 77.6995C599.235 80.9495 600.215 83.3695 602.185 84.9495C604.145 86.5395 607.135 87.3295 611.135 87.3295C616.725 87.3295 621.105 86.0095 624.275 83.3595C627.525 80.7195 629.145 77.1995 629.145 72.8195V67.9495H611.925C607.845 67.9495 604.705 68.7795 602.515 70.4395C600.395 72.0995 599.305 74.5195 599.225 77.6895L599.235 77.6995Z" fill="#1C4E6D"/>
<path d="M670.848 93.2208C663.068 93.2208 657.028 90.7308 652.718 85.7408C648.408 80.7508 646.258 73.6908 646.258 64.5508C646.258 58.2108 647.238 52.9208 649.208 48.6908C651.168 44.3808 654.008 41.1408 657.708 38.9508C661.408 36.6808 665.788 35.5508 670.848 35.5508C675.908 35.5508 680.218 36.8008 683.538 39.2908C686.858 41.7808 689.318 45.2208 690.908 49.6008C692.498 53.9108 693.288 58.8908 693.288 64.5608C693.288 70.2308 692.498 75.0208 690.908 79.4108C689.318 83.7208 686.868 87.1108 683.538 89.6108C680.218 92.0308 675.988 93.2408 670.848 93.2408V93.2208ZM673.228 85.2908C678.968 85.2908 683.198 83.4408 685.918 79.7408C688.638 76.0408 689.998 70.9808 689.998 64.5608C689.998 58.1408 688.638 52.8508 685.918 49.1508C683.198 45.4508 678.968 43.6008 673.228 43.6008C667.188 43.6008 662.728 45.4508 659.858 49.1508C656.988 52.8508 655.548 57.9908 655.548 64.5608C655.548 71.1308 656.978 76.0408 659.858 79.7408C662.728 83.4408 667.188 85.2908 673.228 85.2908ZM690.108 36.7908H699.288V94.0108H689.998V50.7208L690.108 49.9308V36.7908ZM699.288 92.6508C699.358 101.411 697.398 107.831 693.398 111.911C689.398 115.991 683.238 118.031 674.928 118.031C669.338 118.031 664.768 117.311 661.218 115.881C657.748 114.521 655.098 112.521 653.288 109.871C651.548 107.301 650.488 104.241 650.118 100.691H659.868C660.098 102.731 660.618 104.471 661.458 105.901C662.368 107.341 663.838 108.391 665.878 109.071C667.998 109.751 671.018 110.091 674.948 110.091C679.098 110.091 682.238 109.451 684.358 108.161C686.548 106.951 688.018 105.061 688.778 102.491C689.608 99.9208 690.028 96.6408 690.028 92.6308H699.318L699.288 92.6508Z" fill="#1C4E6D"/>
<path d="M712.176 61.2691H750.706C750.626 55.3791 749.236 50.9191 746.516 47.8991C743.876 44.8791 739.826 43.3691 734.396 43.3691C728.356 43.3691 723.936 45.2191 721.136 48.9191C718.336 52.5491 716.946 57.9491 716.946 65.1191C716.946 72.2891 718.306 77.9991 721.026 81.7791C723.816 85.4791 728.546 87.3291 735.186 87.3291C739.646 87.3291 742.886 86.6091 744.936 85.1791C746.976 83.7391 748.376 81.8191 749.126 79.3991H758.986C758.236 82.4191 756.866 85.1391 754.906 87.5591C752.946 89.8991 750.336 91.7491 747.086 93.1091C743.916 94.4691 739.946 95.1491 735.186 95.1491C726.116 95.1491 719.246 92.5391 714.566 87.3291C709.956 82.1191 707.656 74.7891 707.656 65.3491C707.656 55.9091 709.956 48.3891 714.566 43.2491C719.246 38.1091 725.856 35.5391 734.396 35.5391C739.076 35.5391 743.346 36.5191 747.196 38.4891C751.046 40.4491 754.146 43.5891 756.486 47.8891C758.826 52.1991 759.996 57.9791 759.996 65.2291V68.3991H712.066L712.176 61.2591V61.2691Z" fill="#1C4E6D"/>
<path d="M98.9567 112.97H103.367C124.297 112.97 141.327 95.94 141.327 75.02V74.42C141.327 53.5 124.307 36.47 103.367 36.47H61.0567H56.5667C45.5067 36.47 36.5067 45.46 36.5067 56.52C36.5067 67.58 45.4967 76.57 56.5667 76.57H104.887V73.55C104.887 71.67 103.357 70.14 101.477 70.14H56.5767C49.0667 70.14 42.9567 64.03 42.9567 56.52C42.9567 49.01 49.0667 42.9 56.5767 42.9H103.377C120.757 42.9 134.897 57.04 134.897 74.43V75.03C134.897 92.41 120.767 106.55 103.377 106.55H98.8667V106.58H56.5167C28.5867 106.58 5.92666 83.59 6.45666 55.55C6.97666 28.12 29.9367 6.44 57.3667 6.44H61.0767V2.32C61.0767 1.03 60.0367 0 58.7567 0H57.3967C26.3667 0 0.486659 24.62 0.00665947 55.62C-0.473341 87.18 25.0567 113 56.5067 113H98.9467V112.97H98.9567Z" fill="#1C4E6D"/>
<path d="M102.189 18.2307H98.8691V18.2607H56.2491C35.3191 18.2607 18.2891 35.2807 18.2891 56.2107V56.8207C18.2891 77.7507 35.3091 94.7707 56.2491 94.7707H98.8691V94.7907H103.059C114.119 94.7907 123.119 85.8007 123.119 74.7407C123.119 63.6807 114.129 54.6907 103.059 54.6907H54.7291V57.7007C54.7291 59.5807 56.2591 61.1207 58.1391 61.1207H103.049C110.559 61.1207 116.669 67.2407 116.669 74.7507C116.669 82.2607 110.559 88.3707 103.049 88.3707H98.9391V88.3507H56.2291C38.8491 88.3507 24.7091 74.2207 24.7091 56.8307V56.2207C24.7091 38.8407 38.8491 24.7007 56.2291 24.7007H98.9391V24.6707H102.189C129.599 24.6707 152.559 46.3507 153.089 73.7607C153.629 101.801 130.959 124.791 103.029 124.791H98.8491V128.411C98.8491 129.961 100.109 131.231 101.669 131.231H103.039C134.489 131.231 160.019 105.411 159.539 73.8507C159.069 42.8507 133.189 18.2207 102.179 18.2207H102.169L102.189 18.2307Z" fill="#1C4E6D"/>
</svg>
